<?xml version="1.0" encoding="UTF-8"?>
<svg id="Layer_2" data-name="Layer 2" xmlns="http://www.w3.org/2000/svg" viewBox="0 0 184.34 27.75">
  <defs>
    <style>
      .cls-1 {
        fill: #606161;
      }

      .cls-2 {
        fill: #d99937;
      }
    </style>
  </defs>
  <g id="Layer_1-2" data-name="Layer 1">
    <path class="cls-2" d="M121,7.09l4.13,11.13c.14.35.39.57.76.57.41,0,.72-.31.72-.78v-8.16c0-1.8,1.02-3.01,3.05-3.01,1.84,0,2.74.98,3.27,2.56l3.36,8.82c.12.35.41.57.76.57.41,0,.7-.31.7-.78V7.09h2.43v11.03c0,1.82-1.02,3.03-3.07,3.03-1.84,0-2.72-.98-3.25-2.56l-3.36-8.82c-.12-.35-.41-.59-.78-.59-.41,0-.69.31-.69.8v8.14c0,1.82-1.02,3.03-3.07,3.03-1.84,0-2.72-.98-3.25-2.56l-4.28-11.5h2.58Z"/>
    <path class="cls-2" d="M144.01,20.9h-2.66l4.85-12.28c.51-1.29,1.45-1.78,2.91-1.78s2.37.49,2.86,1.78l4.66,12.28h-2.68l-4.2-11.11c-.12-.33-.35-.47-.67-.47s-.55.14-.7.47l-4.38,11.11Z"/>
    <path class="cls-2" d="M166.13,7.09c3.11,0,4.44,1.92,4.44,4.13,0,1.72-.82,3.56-2.93,4.15l3.21,5.52h-2.68l-3.15-5.34h-3.6c-.22,0-.35.1-.35.35v4.99h-2.41v-5.46c0-1.55.65-2.19,2.17-2.19h5.38c1.37,0,1.92-.94,1.92-1.92s-.59-1.82-1.92-1.82h-7.57v-2.41h7.49Z"/>
    <path class="cls-2" d="M184.32,7.09v2.41h-6.92c-1.45,0-2.09.68-2.09,1.74,0,1.13.72,1.64,2.11,1.64h6.79v2.19h-6.85c-1.39,0-2.11.55-2.11,1.68s.67,1.74,2.09,1.74h7v2.41h-7c-3.27,0-4.6-1.62-4.6-3.76,0-1.57.72-2.64,1.99-3.17-1.29-.53-1.94-1.6-1.94-3.11,0-2.21,1.37-3.77,4.62-3.77h6.92Z"/>
    <path class="cls-1" d="M44.65,7.09c3.25,0,4.62,1.53,4.62,3.78,0,1.6-.7,2.56-1.98,3.07,1.31.53,2.05,1.56,2.05,3.15,0,2.21-1.37,3.81-4.62,3.81h-6.14c-.78,0-1.15-.37-1.15-1.12v-11.56c0-.76.37-1.12,1.15-1.12h6.08ZM39.8,12.92h4.91c1.43,0,2.13-.53,2.13-1.66s-.63-1.8-2.11-1.8h-4.66c-.16,0-.27.08-.27.25v3.21ZM39.8,18.28c0,.16.1.23.27.23h4.71c1.45,0,2.13-.68,2.13-1.8s-.72-1.78-2.13-1.78h-4.97v3.36Z"/>
    <path class="cls-1" d="M59.59,7.09c3.11,0,4.44,1.92,4.44,4.13,0,1.72-.82,3.56-2.93,4.15l3.21,5.52h-2.68l-3.15-5.34h-3.6c-.22,0-.35.1-.35.35v4.99h-2.41v-5.46c0-1.55.65-2.19,2.17-2.19h5.38c1.37,0,1.92-.94,1.92-1.92s-.59-1.82-1.92-1.82h-7.57v-2.41h7.49Z"/>
    <path class="cls-1" d="M68.12,20.9h-2.66l4.85-12.28c.51-1.29,1.45-1.78,2.91-1.78s2.37.49,2.86,1.78l4.66,12.28h-2.68l-4.2-11.11c-.12-.33-.35-.47-.67-.47s-.55.14-.7.47l-4.38,11.11Z"/>
    <polygon class="cls-1" points="85.2 7.09 85.2 12.72 92.26 12.72 92.26 7.09 94.7 7.09 94.7 20.9 92.26 20.9 92.26 15.13 85.2 15.13 85.2 20.9 82.79 20.9 82.79 7.09 85.2 7.09"/>
    <path class="cls-1" d="M100.43,20.9h-2.41v-11.05c0-1.8,1-3.01,3.07-3.01,1.84,0,2.72.98,3.23,2.56l3.36,8.82c.14.35.41.57.78.57.41,0,.72-.31.72-.78v-8.16c0-1.8,1-3.01,3.05-3.01,1.84,0,2.72.98,3.27,2.56l4.28,11.5h-2.6l-4.11-11.13c-.14-.35-.41-.59-.78-.59-.41,0-.7.31-.7.8v8.14c0,1.82-1.04,3.03-3.07,3.03-1.82,0-2.72-.98-3.25-2.56l-3.36-8.82c-.14-.35-.41-.59-.76-.59-.43,0-.72.31-.72.8v10.93Z"/>
    <path class="cls-2" d="M12.97,27.75c-3.89,0-7.05-3.16-7.05-7.05s3.16-7.05,7.05-7.05,7.05,3.16,7.05,7.05-3.16,7.05-7.05,7.05M12.97,14.09c-3.64,0-6.61,2.96-6.61,6.61s2.96,6.61,6.61,6.61,6.61-2.96,6.61-6.61-2.96-6.61-6.61-6.61"/>
    <path class="cls-2" d="M12.97,21.01c-3.89,0-7.05-3.16-7.05-7.05s3.16-7.05,7.05-7.05,7.05,3.16,7.05,7.05-3.16,7.05-7.05,7.05M12.97,7.35c-3.64,0-6.61,2.96-6.61,6.61s2.96,6.61,6.61,6.61,6.61-2.96,6.61-6.61-2.96-6.61-6.61-6.61"/>
    <path class="cls-2" d="M12.97,14.1c-3.89,0-7.05-3.16-7.05-7.05S9.08,0,12.97,0s7.05,3.16,7.05,7.05-3.16,7.05-7.05,7.05M12.97.44c-3.64,0-6.61,2.96-6.61,6.61s2.96,6.61,6.61,6.61,6.61-2.96,6.61-6.61S16.61.44,12.97.44"/>
    <path class="cls-2" d="M18.89,17.53c-3.89,0-7.05-3.16-7.05-7.05s3.16-7.05,7.05-7.05,7.05,3.16,7.05,7.05-3.16,7.05-7.05,7.05M18.89,3.87c-3.64,0-6.61,2.96-6.61,6.61s2.96,6.61,6.61,6.61,6.61-2.96,6.61-6.61-2.96-6.61-6.61-6.61"/>
    <path class="cls-2" d="M18.83,24.44c-3.89,0-7.05-3.16-7.05-7.05s3.16-7.05,7.05-7.05,7.05,3.16,7.05,7.05-3.16,7.05-7.05,7.05M18.83,10.78c-3.64,0-6.61,2.96-6.61,6.61s2.96,6.61,6.61,6.61,6.61-2.96,6.61-6.61-2.96-6.61-6.61-6.61"/>
    <path class="cls-2" d="M7.11,17.47C3.22,17.47.06,14.31.06,10.42S3.22,3.37,7.11,3.37s7.05,3.16,7.05,7.05-3.16,7.05-7.05,7.05M7.11,3.82C3.46,3.82.5,6.78.5,10.42s2.96,6.61,6.61,6.61,6.61-2.96,6.61-6.61-2.96-6.61-6.61-6.61"/>
    <path class="cls-2" d="M7.05,24.39c-3.89,0-7.05-3.16-7.05-7.05s3.16-7.05,7.05-7.05,7.05,3.16,7.05,7.05-3.16,7.05-7.05,7.05M7.05,10.73c-3.64,0-6.61,2.96-6.61,6.61s2.96,6.61,6.61,6.61,6.61-2.96,6.61-6.61-2.96-6.61-6.61-6.61"/>
    <path class="cls-2" d="M13.02,13.63c-2.05-3.32,0-6.19,0-6.19"/>
    <path class="cls-2" d="M12.85,20.48c2.08-3.3.07-6.19.07-6.19"/>
    <path class="cls-2" d="M13.25,13.73c1.88-3.42,5.39-3.06,5.39-3.06"/>
    <path class="cls-2" d="M18.61,17.17c-1.8-3.46-5.35-3.11-5.35-3.11"/>
    <path class="cls-2" d="M12.61,14.1c-1.88,3.42-5.39,3.06-5.39,3.06"/>
    <path class="cls-2" d="M7.3,10.61c1.81,3.45,5.37,3.09,5.37,3.09"/>
  </g>
</svg>