<?xml version="1.0" encoding="UTF-8"?>
<svg id="Layer_2" data-name="Layer 2" xmlns="http://www.w3.org/2000/svg" viewBox="0 0 115.24 86.5">
  <defs>
    <style>
      .cls-1 {
        fill: #606161;
      }

      .cls-2 {
        fill: #d99937;
      }
    </style>
  </defs>
  <g id="Layer_1-2" data-name="Layer 1">
    <path class="cls-2" d="M65.55,75.47l3.24,8.73c.11.27.31.45.59.45.32,0,.56-.24.56-.61v-6.4c0-1.41.8-2.36,2.39-2.36,1.44,0,2.15.77,2.57,2.01l2.63,6.92c.1.27.32.45.59.45.32,0,.55-.24.55-.61v-8.57h1.91v8.65c0,1.43-.8,2.38-2.41,2.38-1.45,0-2.14-.77-2.55-2.01l-2.63-6.92c-.1-.27-.32-.47-.61-.47-.32,0-.54.24-.54.63v6.39c0,1.43-.8,2.38-2.41,2.38-1.44,0-2.14-.77-2.55-2.01l-3.35-9.02h2.02Z"/>
    <path class="cls-2" d="M83.61,86.31h-2.09l3.8-9.63c.4-1.01,1.14-1.4,2.28-1.4s1.86.39,2.25,1.4l3.66,9.63h-2.1l-3.29-8.71c-.1-.26-.27-.37-.53-.37s-.43.11-.55.37l-3.43,8.71Z"/>
    <path class="cls-2" d="M100.96,75.47c2.44,0,3.48,1.51,3.48,3.24,0,1.35-.64,2.79-2.29,3.26l2.52,4.33h-2.1l-2.47-4.19h-2.82c-.18,0-.27.08-.27.27v3.92h-1.89v-4.29c0-1.22.51-1.72,1.7-1.72h4.22c1.08,0,1.51-.74,1.51-1.51s-.47-1.43-1.51-1.43h-5.94v-1.89h5.87Z"/>
    <path class="cls-2" d="M115.23,75.47v1.89h-5.43c-1.14,0-1.64.53-1.64,1.36,0,.88.56,1.28,1.65,1.28h5.33v1.72h-5.38c-1.09,0-1.65.43-1.65,1.32s.53,1.36,1.64,1.36h5.49v1.89h-5.49c-2.57,0-3.61-1.27-3.61-2.95,0-1.24.56-2.07,1.56-2.49-1.01-.42-1.52-1.25-1.52-2.44,0-1.73,1.07-2.95,3.63-2.95h5.43Z"/>
    <path class="cls-1" d="M5.67,75.47c2.55,0,3.63,1.2,3.63,2.97,0,1.25-.54,2.01-1.56,2.41,1.03.42,1.6,1.22,1.6,2.47,0,1.73-1.07,2.99-3.63,2.99H.9c-.61,0-.9-.29-.9-.88v-9.07c0-.59.29-.88.9-.88h4.77ZM1.86,80.05h3.85c1.12,0,1.67-.42,1.67-1.3s-.5-1.41-1.65-1.41h-3.66c-.13,0-.21.06-.21.19v2.52ZM1.86,84.25c0,.13.08.18.21.18h3.69c1.14,0,1.67-.53,1.67-1.41s-.56-1.4-1.67-1.4H1.86v2.63Z"/>
    <path class="cls-1" d="M17.38,75.47c2.44,0,3.48,1.51,3.48,3.24,0,1.35-.64,2.79-2.29,3.26l2.52,4.33h-2.1l-2.47-4.19h-2.83c-.18,0-.27.08-.27.27v3.92h-1.89v-4.29c0-1.22.51-1.72,1.7-1.72h4.22c1.08,0,1.51-.74,1.51-1.51s-.47-1.43-1.51-1.43h-5.94v-1.89h5.87Z"/>
    <path class="cls-1" d="M24.07,86.31h-2.09l3.8-9.63c.4-1.01,1.14-1.4,2.28-1.4s1.86.39,2.25,1.4l3.66,9.63h-2.1l-3.29-8.71c-.1-.26-.27-.37-.53-.37s-.43.11-.55.37l-3.43,8.71Z"/>
    <polygon class="cls-1" points="37.48 75.47 37.48 79.89 43.01 79.89 43.01 75.47 44.92 75.47 44.92 86.31 43.01 86.31 43.01 81.78 37.48 81.78 37.48 86.31 35.58 86.31 35.58 75.47 37.48 75.47"/>
    <path class="cls-1" d="M49.42,86.31h-1.89v-8.67c0-1.41.79-2.36,2.41-2.36,1.44,0,2.13.77,2.53,2.01l2.63,6.92c.11.27.32.45.61.45.32,0,.56-.24.56-.61v-6.4c0-1.41.79-2.36,2.39-2.36,1.44,0,2.13.77,2.57,2.01l3.35,9.02h-2.04l-3.23-8.73c-.11-.27-.32-.47-.61-.47-.32,0-.55.24-.55.63v6.39c0,1.43-.82,2.38-2.41,2.38-1.43,0-2.14-.77-2.55-2.01l-2.63-6.92c-.11-.27-.32-.47-.59-.47-.34,0-.56.24-.56.63v8.57Z"/>
    <path class="cls-2" d="M57.62,64.06c-8.98,0-16.28-7.3-16.28-16.28s7.3-16.28,16.28-16.28,16.28,7.3,16.28,16.28-7.3,16.28-16.28,16.28M57.62,32.53c-8.41,0-15.26,6.84-15.26,15.26s6.84,15.26,15.26,15.26,15.25-6.84,15.25-15.26-6.84-15.26-15.25-15.26"/>
    <path class="cls-2" d="M57.62,48.51c-8.98,0-16.28-7.3-16.28-16.28s7.3-16.28,16.28-16.28,16.28,7.3,16.28,16.28-7.3,16.28-16.28,16.28M57.62,16.98c-8.41,0-15.26,6.84-15.26,15.26s6.84,15.26,15.26,15.26,15.25-6.84,15.25-15.26-6.84-15.26-15.25-15.26"/>
    <path class="cls-2" d="M57.62,32.55c-8.98,0-16.28-7.3-16.28-16.28S48.65,0,57.62,0s16.28,7.3,16.28,16.28-7.3,16.28-16.28,16.28M57.62,1.02c-8.41,0-15.26,6.84-15.26,15.26s6.84,15.26,15.26,15.26,15.25-6.84,15.25-15.26-6.84-15.26-15.25-15.26"/>
    <path class="cls-2" d="M71.28,40.47c-8.98,0-16.28-7.3-16.28-16.28s7.3-16.28,16.28-16.28,16.28,7.3,16.28,16.28-7.3,16.28-16.28,16.28M71.28,8.94c-8.41,0-15.26,6.84-15.26,15.26s6.84,15.26,15.26,15.26,15.25-6.84,15.25-15.26-6.84-15.26-15.25-15.26"/>
    <path class="cls-2" d="M71.15,56.43c-8.98,0-16.28-7.3-16.28-16.28s7.3-16.28,16.28-16.28,16.28,7.3,16.28,16.28-7.3,16.28-16.28,16.28M71.15,24.89c-8.41,0-15.26,6.84-15.26,15.26s6.84,15.26,15.26,15.26,15.25-6.84,15.25-15.26-6.84-15.26-15.25-15.26"/>
    <path class="cls-2" d="M44.09,40.34c-8.98,0-16.28-7.3-16.28-16.28s7.3-16.28,16.28-16.28,16.28,7.3,16.28,16.28-7.3,16.28-16.28,16.28M44.09,8.81c-8.41,0-15.26,6.84-15.26,15.26s6.84,15.26,15.26,15.26,15.25-6.84,15.25-15.26-6.84-15.26-15.25-15.26"/>
    <path class="cls-2" d="M43.96,56.3c-8.98,0-16.28-7.3-16.28-16.28s7.3-16.28,16.28-16.28,16.28,7.3,16.28,16.28-7.3,16.28-16.28,16.28M43.96,24.77c-8.41,0-15.26,6.84-15.26,15.26s6.84,15.26,15.26,15.26,15.25-6.84,15.25-15.26-6.84-15.26-15.25-15.26"/>
    <path class="cls-2" d="M57.75,31.46c-4.72-7.66,0-14.3,0-14.3"/>
    <path class="cls-2" d="M57.36,47.28c4.81-7.61.15-14.3.15-14.3"/>
    <path class="cls-2" d="M58.28,31.69c4.33-7.89,12.43-7.06,12.43-7.06"/>
    <path class="cls-2" d="M70.64,39.63c-4.15-7.99-12.36-7.19-12.36-7.19"/>
    <path class="cls-2" d="M56.8,32.54c-4.33,7.89-12.43,7.06-12.43,7.06"/>
    <path class="cls-2" d="M44.53,24.51c4.19,7.97,12.4,7.12,12.4,7.12"/>
  </g>
</svg>