<?xml version="1.0" encoding="UTF-8"?>
<svg id="Layer_2" data-name="Layer 2" xmlns="http://www.w3.org/2000/svg" viewBox="0 0 37.47 27.76">
  <defs>
    <style>
      .cls-1 {
        fill: #fff;
      }

      .cls-2 {
        fill: #d99937;
      }
    </style>
  </defs>
  <g id="Layer_1-2" data-name="Layer 1">
    <path class="cls-2" d="M21.31,24.18l1.05,2.84c.04.09.1.15.19.15.11,0,.18-.08.18-.2v-2.08c0-.46.26-.77.78-.77.47,0,.7.25.84.65l.86,2.25c.03.09.11.15.19.15.11,0,.18-.08.18-.2v-2.79h.62v2.81c0,.46-.26.77-.78.77-.47,0-.69-.25-.83-.65l-.86-2.25c-.03-.09-.1-.15-.2-.15-.1,0-.18.08-.18.2v2.08c0,.46-.26.77-.78.77-.47,0-.69-.25-.83-.65l-1.09-2.93h.66Z"/>
    <path class="cls-2" d="M27.18,27.7h-.68l1.24-3.13c.13-.33.37-.45.74-.45s.61.12.73.45l1.19,3.13h-.68l-1.07-2.83c-.03-.08-.09-.12-.17-.12s-.14.04-.18.12l-1.12,2.83Z"/>
    <path class="cls-2" d="M32.82,24.18c.79,0,1.13.49,1.13,1.05,0,.44-.21.91-.75,1.06l.82,1.41h-.68l-.8-1.36h-.92c-.06,0-.09.03-.09.09v1.27h-.62v-1.39c0-.4.17-.56.55-.56h1.37c.35,0,.49-.24.49-.49s-.15-.46-.49-.46h-1.93v-.62h1.91Z"/>
    <path class="cls-2" d="M37.46,24.18v.62h-1.76c-.37,0-.53.17-.53.44,0,.29.18.42.54.42h1.73v.56h-1.75c-.36,0-.54.14-.54.43s.17.44.53.44h1.79v.62h-1.79c-.83,0-1.17-.41-1.17-.96,0-.4.18-.67.51-.81-.33-.14-.49-.41-.49-.79,0-.56.35-.96,1.18-.96h1.76Z"/>
    <path class="cls-1" d="M1.84,24.18c.83,0,1.18.39,1.18.96,0,.41-.18.65-.51.78.33.14.52.4.52.8,0,.56-.35.97-1.18.97H.29c-.2,0-.29-.09-.29-.29v-2.95c0-.19.09-.29.29-.29h1.55ZM.61,25.67h1.25c.37,0,.54-.14.54-.42s-.16-.46-.54-.46H.67s-.07.02-.07.06v.82ZM.61,27.03s.03.06.07.06h1.2c.37,0,.54-.17.54-.46s-.18-.45-.54-.45H.61v.86Z"/>
    <path class="cls-1" d="M5.65,24.18c.79,0,1.13.49,1.13,1.05,0,.44-.21.91-.75,1.06l.82,1.41h-.68l-.8-1.36h-.92c-.06,0-.09.03-.09.09v1.27h-.62v-1.39c0-.4.17-.56.55-.56h1.37c.35,0,.49-.24.49-.49s-.15-.46-.49-.46h-1.93v-.62h1.91Z"/>
    <path class="cls-1" d="M7.83,27.7h-.68l1.24-3.13c.13-.33.37-.45.74-.45s.61.12.73.45l1.19,3.13h-.68l-1.07-2.83c-.03-.08-.09-.12-.17-.12s-.14.04-.18.12l-1.12,2.83Z"/>
    <polygon class="cls-1" points="12.18 24.18 12.18 25.61 13.98 25.61 13.98 24.18 14.61 24.18 14.61 27.7 13.98 27.7 13.98 26.23 12.18 26.23 12.18 27.7 11.57 27.7 11.57 24.18 12.18 24.18"/>
    <path class="cls-1" d="M16.07,27.7h-.62v-2.82c0-.46.26-.77.78-.77.47,0,.69.25.82.65l.86,2.25c.04.09.11.15.2.15.1,0,.18-.08.18-.2v-2.08c0-.46.26-.77.78-.77.47,0,.69.25.83.65l1.09,2.93h-.66l-1.05-2.84c-.04-.09-.1-.15-.2-.15-.1,0-.18.08-.18.2v2.08c0,.46-.27.77-.78.77-.46,0-.69-.25-.83-.65l-.86-2.25c-.04-.09-.1-.15-.19-.15-.11,0-.18.08-.18.2v2.79Z"/>
    <path class="cls-1" d="M18.73,20.83c-2.92,0-5.29-2.37-5.29-5.29s2.37-5.29,5.29-5.29,5.29,2.37,5.29,5.29-2.37,5.29-5.29,5.29M18.73,10.58c-2.74,0-4.96,2.23-4.96,4.96s2.23,4.96,4.96,4.96,4.96-2.23,4.96-4.96-2.23-4.96-4.96-4.96"/>
    <path class="cls-1" d="M18.73,15.77c-2.92,0-5.29-2.37-5.29-5.29s2.37-5.29,5.29-5.29,5.29,2.37,5.29,5.29-2.37,5.29-5.29,5.29M18.73,5.52c-2.74,0-4.96,2.23-4.96,4.96s2.23,4.96,4.96,4.96,4.96-2.23,4.96-4.96-2.23-4.96-4.96-4.96"/>
    <path class="cls-1" d="M18.73,10.58c-2.92,0-5.29-2.37-5.29-5.29S15.82,0,18.73,0s5.29,2.37,5.29,5.29-2.37,5.29-5.29,5.29M18.73.33c-2.74,0-4.96,2.23-4.96,4.96s2.23,4.96,4.96,4.96,4.96-2.23,4.96-4.96S21.47.33,18.73.33"/>
    <path class="cls-1" d="M23.18,13.16c-2.92,0-5.29-2.37-5.29-5.29s2.37-5.29,5.29-5.29,5.29,2.37,5.29,5.29-2.37,5.29-5.29,5.29M23.18,2.91c-2.74,0-4.96,2.23-4.96,4.96s2.23,4.96,4.96,4.96,4.96-2.23,4.96-4.96-2.23-4.96-4.96-4.96"/>
    <path class="cls-1" d="M23.13,18.35c-2.92,0-5.29-2.37-5.29-5.29s2.37-5.29,5.29-5.29,5.29,2.37,5.29,5.29-2.37,5.29-5.29,5.29M23.13,8.09c-2.74,0-4.96,2.23-4.96,4.96s2.23,4.96,4.96,4.96,4.96-2.23,4.96-4.96-2.23-4.96-4.96-4.96"/>
    <path class="cls-1" d="M14.33,13.12c-2.92,0-5.29-2.37-5.29-5.29s2.37-5.29,5.29-5.29,5.29,2.37,5.29,5.29-2.37,5.29-5.29,5.29M14.33,2.86c-2.74,0-4.96,2.23-4.96,4.96s2.23,4.96,4.96,4.96,4.96-2.23,4.96-4.96-2.23-4.96-4.96-4.96"/>
    <path class="cls-1" d="M14.29,18.3c-2.92,0-5.29-2.37-5.29-5.29s2.37-5.29,5.29-5.29,5.29,2.37,5.29,5.29-2.37,5.29-5.29,5.29M14.29,8.05c-2.74,0-4.96,2.23-4.96,4.96s2.23,4.96,4.96,4.96,4.96-2.23,4.96-4.96-2.23-4.96-4.96-4.96"/>
    <path class="cls-1" d="M18.78,10.23c-1.54-2.49,0-4.65,0-4.65"/>
    <path class="cls-1" d="M18.65,15.37c1.56-2.47.05-4.65.05-4.65"/>
    <path class="cls-1" d="M18.95,10.3c1.41-2.57,4.04-2.3,4.04-2.3"/>
    <path class="cls-1" d="M22.97,12.88c-1.35-2.6-4.02-2.34-4.02-2.34"/>
    <path class="cls-1" d="M18.47,10.58c-1.41,2.57-4.04,2.3-4.04,2.3"/>
    <path class="cls-1" d="M14.48,7.97c1.36,2.59,4.03,2.32,4.03,2.32"/>
  </g>
</svg>