<?xml version="1.0" encoding="UTF-8"?>
<svg id="Layer_2" data-name="Layer 2" xmlns="http://www.w3.org/2000/svg" viewBox="0 0 72.01 53.35">
  <defs>
    <style>
      .cls-1 {
        fill: #231f20;
      }

      .cls-2 {
        fill: #fff;
      }
    </style>
  </defs>
  <g id="Layer_1-2" data-name="Layer 1">
    <path class="cls-2" d="M40.96,46.46l2.03,5.46c.07.17.19.28.37.28.2,0,.35-.15.35-.38v-4c0-.88.5-1.47,1.49-1.47.9,0,1.34.48,1.6,1.25l1.64,4.32c.06.17.2.28.37.28.2,0,.34-.15.34-.38v-5.36h1.19v5.41c0,.89-.5,1.48-1.5,1.48-.9,0-1.33-.48-1.59-1.25l-1.65-4.32c-.06-.17-.2-.29-.38-.29-.2,0-.34.15-.34.39v3.99c0,.89-.5,1.48-1.5,1.48-.9,0-1.33-.48-1.59-1.25l-2.1-5.64h1.26Z"/>
    <path class="cls-2" d="M52.24,53.23h-1.3l2.38-6.02c.25-.63.71-.87,1.42-.87s1.16.24,1.4.87l2.29,6.02h-1.31l-2.06-5.45c-.06-.16-.17-.23-.33-.23s-.27.07-.34.23l-2.15,5.45Z"/>
    <path class="cls-2" d="M63.08,46.46c1.52,0,2.18.94,2.18,2.03,0,.84-.4,1.75-1.43,2.04l1.57,2.71h-1.31l-1.55-2.62h-1.76c-.11,0-.17.05-.17.17v2.45h-1.18v-2.68c0-.76.32-1.07,1.06-1.07h2.64c.67,0,.94-.46.94-.94s-.29-.89-.94-.89h-3.71v-1.18h3.67Z"/>
    <path class="cls-2" d="M72,46.46v1.18h-3.39c-.71,0-1.02.33-1.02.85,0,.55.35.8,1.03.8h3.33v1.07h-3.36c-.68,0-1.03.27-1.03.82s.33.85,1.02.85h3.43v1.18h-3.43c-1.6,0-2.26-.79-2.26-1.85,0-.77.35-1.29.97-1.55-.63-.26-.95-.78-.95-1.53,0-1.08.67-1.85,2.27-1.85h3.39Z"/>
    <path class="cls-1" d="M3.54,46.46c1.59,0,2.27.75,2.27,1.86,0,.78-.34,1.25-.97,1.5.64.26,1,.76,1,1.54,0,1.08-.67,1.87-2.27,1.87H.56c-.38,0-.56-.18-.56-.55v-5.67c0-.37.18-.55.56-.55h2.98ZM1.16,49.32h2.41c.7,0,1.04-.26,1.04-.81s-.31-.88-1.03-.88H1.29c-.08,0-.13.04-.13.12v1.57ZM1.16,51.95c0,.08.05.11.13.11h2.31c.71,0,1.04-.33,1.04-.88s-.35-.87-1.04-.87H1.16v1.64Z"/>
    <path class="cls-1" d="M10.86,46.46c1.52,0,2.18.94,2.18,2.03,0,.84-.4,1.75-1.43,2.04l1.57,2.71h-1.31l-1.55-2.62h-1.76c-.11,0-.17.05-.17.17v2.45h-1.18v-2.68c0-.76.32-1.07,1.06-1.07h2.64c.67,0,.94-.46.94-.94s-.29-.89-.94-.89h-3.71v-1.18h3.67Z"/>
    <path class="cls-1" d="M15.04,53.23h-1.3l2.38-6.02c.25-.63.71-.87,1.42-.87s1.16.24,1.4.87l2.29,6.02h-1.31l-2.06-5.45c-.06-.16-.17-.23-.33-.23s-.27.07-.34.23l-2.15,5.45Z"/>
    <polygon class="cls-1" points="23.42 46.46 23.42 49.22 26.88 49.22 26.88 46.46 28.07 46.46 28.07 53.23 26.88 53.23 26.88 50.4 23.42 50.4 23.42 53.23 22.23 53.23 22.23 46.46 23.42 46.46"/>
    <path class="cls-1" d="M30.88,53.23h-1.18v-5.42c0-.88.49-1.47,1.5-1.47.9,0,1.33.48,1.58,1.25l1.65,4.32c.07.17.2.28.38.28.2,0,.35-.15.35-.38v-4c0-.88.49-1.47,1.49-1.47.9,0,1.33.48,1.6,1.25l2.1,5.64h-1.27l-2.01-5.46c-.07-.17-.2-.29-.38-.29-.2,0-.34.15-.34.39v3.99c0,.89-.51,1.48-1.51,1.48-.89,0-1.33-.48-1.59-1.25l-1.65-4.32c-.07-.17-.2-.29-.37-.29-.21,0-.35.15-.35.39v5.35Z"/>
    <path class="cls-1" d="M36,40.03c-5.61,0-10.17-4.56-10.17-10.17s4.56-10.17,10.17-10.17,10.17,4.56,10.17,10.17-4.56,10.17-10.17,10.17M36,20.33c-5.26,0-9.53,4.28-9.53,9.53s4.28,9.53,9.53,9.53,9.53-4.28,9.53-9.53-4.28-9.53-9.53-9.53"/>
    <path class="cls-1" d="M36,30.31c-5.61,0-10.17-4.56-10.17-10.17s4.56-10.17,10.17-10.17,10.17,4.56,10.17,10.17-4.56,10.17-10.17,10.17M36,10.61c-5.26,0-9.53,4.28-9.53,9.53s4.28,9.53,9.53,9.53,9.53-4.28,9.53-9.53-4.28-9.53-9.53-9.53"/>
    <path class="cls-1" d="M36,20.34c-5.61,0-10.17-4.56-10.17-10.17S30.39,0,36,0s10.17,4.56,10.17,10.17-4.56,10.17-10.17,10.17M36,.64c-5.26,0-9.53,4.28-9.53,9.53s4.28,9.53,9.53,9.53,9.53-4.28,9.53-9.53S41.26.64,36,.64"/>
    <path class="cls-1" d="M44.54,25.29c-5.61,0-10.17-4.56-10.17-10.17s4.56-10.17,10.17-10.17,10.17,4.56,10.17,10.17-4.56,10.17-10.17,10.17M44.54,5.58c-5.26,0-9.53,4.28-9.53,9.53s4.28,9.53,9.53,9.53,9.53-4.28,9.53-9.53-4.28-9.53-9.53-9.53"/>
    <path class="cls-1" d="M44.46,35.26c-5.61,0-10.17-4.56-10.17-10.17s4.56-10.17,10.17-10.17,10.17,4.56,10.17,10.17-4.56,10.17-10.17,10.17M44.46,15.55c-5.26,0-9.53,4.28-9.53,9.53s4.28,9.53,9.53,9.53,9.53-4.28,9.53-9.53-4.28-9.53-9.53-9.53"/>
    <path class="cls-1" d="M27.55,25.21c-5.61,0-10.17-4.56-10.17-10.17s4.56-10.17,10.17-10.17,10.17,4.56,10.17,10.17-4.56,10.17-10.17,10.17M27.55,5.5c-5.26,0-9.53,4.28-9.53,9.53s4.28,9.53,9.53,9.53,9.53-4.28,9.53-9.53-4.28-9.53-9.53-9.53"/>
    <path class="cls-1" d="M27.47,35.18c-5.61,0-10.17-4.56-10.17-10.17s4.56-10.17,10.17-10.17,10.17,4.56,10.17,10.17-4.56,10.17-10.17,10.17M27.47,15.47c-5.26,0-9.53,4.28-9.53,9.53s4.28,9.53,9.53,9.53,9.53-4.28,9.53-9.53-4.28-9.53-9.53-9.53"/>
    <path class="cls-1" d="M36.08,19.66c-2.95-4.79,0-8.93,0-8.93"/>
    <path class="cls-1" d="M35.84,29.54c3-4.76.1-8.93.1-8.93"/>
    <path class="cls-1" d="M36.41,19.8c2.71-4.93,7.77-4.41,7.77-4.41"/>
    <path class="cls-1" d="M44.14,24.76c-2.59-4.99-7.72-4.49-7.72-4.49"/>
    <path class="cls-1" d="M35.49,20.33c-2.71,4.93-7.77,4.41-7.77,4.41"/>
    <path class="cls-1" d="M27.83,15.31c2.62,4.98,7.75,4.45,7.75,4.45"/>
  </g>
</svg>