<?xml version="1.0" encoding="UTF-8"?>
<svg id="Layer_2" data-name="Layer 2" xmlns="http://www.w3.org/2000/svg" viewBox="0 0 80.69 12.15">
  <defs>
    <style>
      .cls-1 {
        fill: #fff;
      }
    </style>
  </defs>
  <g id="Layer_1-2" data-name="Layer 1">
    <path class="cls-1" d="M52.96,3.1l1.81,4.87c.06.15.17.25.33.25.18,0,.31-.13.31-.34v-3.57c0-.79.45-1.32,1.33-1.32.81,0,1.2.43,1.43,1.12l1.47,3.86c.05.15.18.25.33.25.18,0,.3-.13.3-.34V3.1h1.07v4.83c0,.8-.45,1.33-1.34,1.33-.81,0-1.19-.43-1.42-1.12l-1.47-3.86c-.05-.15-.18-.26-.34-.26-.18,0-.3.13-.3.35v3.57c0,.8-.45,1.33-1.34,1.33-.81,0-1.19-.43-1.42-1.12l-1.87-5.03h1.13Z"/>
    <path class="cls-1" d="M63.04,9.15h-1.16l2.12-5.37c.22-.56.64-.78,1.27-.78s1.04.21,1.25.78l2.04,5.37h-1.17l-1.84-4.86c-.05-.14-.15-.21-.3-.21s-.24.06-.3.21l-1.92,4.86Z"/>
    <path class="cls-1" d="M72.72,3.1c1.36,0,1.94.84,1.94,1.81,0,.75-.36,1.56-1.28,1.82l1.41,2.42h-1.17l-1.38-2.34h-1.58c-.1,0-.15.05-.15.15v2.19h-1.06v-2.39c0-.68.29-.96.95-.96h2.36c.6,0,.84-.41.84-.84s-.26-.8-.84-.8h-3.31v-1.06h3.28Z"/>
    <path class="cls-1" d="M80.68,3.1v1.06h-3.03c-.64,0-.91.3-.91.76,0,.49.31.72.92.72h2.97v.96h-3c-.61,0-.92.24-.92.73s.3.76.91.76h3.06v1.06h-3.06c-1.43,0-2.02-.71-2.02-1.65,0-.69.31-1.16.87-1.39-.56-.23-.85-.7-.85-1.36,0-.97.6-1.65,2.02-1.65h3.03Z"/>
    <path d="M19.55,3.1c1.42,0,2.02.67,2.02,1.66,0,.7-.3,1.12-.87,1.34.57.23.9.68.9,1.38,0,.97-.6,1.67-2.02,1.67h-2.69c-.34,0-.5-.16-.5-.49V3.6c0-.33.16-.49.5-.49h2.66ZM17.42,5.66h2.15c.63,0,.93-.23.93-.72s-.28-.79-.92-.79h-2.04c-.07,0-.12.04-.12.11v1.41ZM17.42,8c0,.07.04.1.12.1h2.06c.64,0,.93-.3.93-.79s-.31-.78-.93-.78h-2.18v1.47Z"/>
    <path d="M26.08,3.1c1.36,0,1.94.84,1.94,1.81,0,.75-.36,1.56-1.28,1.82l1.41,2.42h-1.17l-1.38-2.34h-1.58c-.1,0-.15.05-.15.15v2.19h-1.06v-2.39c0-.68.29-.96.95-.96h2.36c.6,0,.84-.41.84-.84s-.26-.8-.84-.8h-3.31v-1.06h3.28Z"/>
    <path d="M29.82,9.15h-1.16l2.12-5.37c.22-.56.64-.78,1.27-.78s1.04.21,1.25.78l2.04,5.37h-1.17l-1.84-4.86c-.05-.14-.15-.21-.3-.21s-.24.06-.3.21l-1.92,4.86Z"/>
    <polygon points="37.3 3.1 37.3 5.57 40.39 5.57 40.39 3.1 41.45 3.1 41.45 9.15 40.39 9.15 40.39 6.62 37.3 6.62 37.3 9.15 36.24 9.15 36.24 3.1 37.3 3.1"/>
    <path d="M43.96,9.15h-1.06v-4.84c0-.79.44-1.32,1.34-1.32.81,0,1.19.43,1.41,1.12l1.47,3.86c.06.15.18.25.34.25.18,0,.31-.13.31-.34v-3.57c0-.79.44-1.32,1.33-1.32.81,0,1.19.43,1.43,1.12l1.87,5.03h-1.14l-1.8-4.87c-.06-.15-.18-.26-.34-.26-.18,0-.3.13-.3.35v3.57c0,.8-.46,1.33-1.34,1.33-.8,0-1.19-.43-1.42-1.12l-1.47-3.86c-.06-.15-.18-.26-.33-.26-.19,0-.31.13-.31.35v4.78Z"/>
    <path d="M5.68,12.15c-1.7,0-3.09-1.38-3.09-3.09s1.38-3.09,3.09-3.09,3.09,1.39,3.09,3.09-1.38,3.09-3.09,3.09M5.68,6.17c-1.6,0-2.89,1.3-2.89,2.89s1.3,2.89,2.89,2.89,2.89-1.3,2.89-2.89-1.3-2.89-2.89-2.89"/>
    <path d="M5.68,9.2c-1.7,0-3.09-1.38-3.09-3.09s1.38-3.09,3.09-3.09,3.09,1.39,3.09,3.09-1.38,3.09-3.09,3.09M5.68,3.22c-1.6,0-2.89,1.3-2.89,2.89s1.3,2.89,2.89,2.89,2.89-1.3,2.89-2.89-1.3-2.89-2.89-2.89"/>
    <path d="M5.68,6.17c-1.7,0-3.09-1.38-3.09-3.09S3.97,0,5.68,0s3.09,1.39,3.09,3.09-1.38,3.09-3.09,3.09M5.68.19c-1.6,0-2.89,1.3-2.89,2.89s1.3,2.89,2.89,2.89,2.89-1.3,2.89-2.89S7.27.19,5.68.19"/>
    <path d="M8.27,7.67c-1.7,0-3.09-1.38-3.09-3.09s1.38-3.09,3.09-3.09,3.09,1.39,3.09,3.09-1.38,3.09-3.09,3.09M8.27,1.69c-1.6,0-2.89,1.3-2.89,2.89s1.3,2.89,2.89,2.89,2.89-1.3,2.89-2.89-1.3-2.89-2.89-2.89"/>
    <path d="M8.24,10.7c-1.7,0-3.09-1.38-3.09-3.09s1.38-3.09,3.09-3.09,3.09,1.39,3.09,3.09-1.38,3.09-3.09,3.09M8.24,4.72c-1.6,0-2.89,1.3-2.89,2.89s1.3,2.89,2.89,2.89,2.89-1.3,2.89-2.89-1.3-2.89-2.89-2.89"/>
    <path d="M3.11,7.65C1.41,7.65.02,6.27.02,4.56S1.41,1.48,3.11,1.48s3.09,1.39,3.09,3.09-1.38,3.09-3.09,3.09M3.11,1.67C1.52,1.67.22,2.97.22,4.56s1.3,2.89,2.89,2.89,2.89-1.3,2.89-2.89-1.3-2.89-2.89-2.89"/>
    <path d="M3.09,10.68c-1.7,0-3.09-1.38-3.09-3.09s1.38-3.09,3.09-3.09,3.09,1.39,3.09,3.09-1.38,3.09-3.09,3.09M3.09,4.7C1.49,4.7.19,5.99.19,7.59s1.3,2.89,2.89,2.89,2.89-1.3,2.89-2.89-1.3-2.89-2.89-2.89"/>
    <path d="M5.7,5.97c-.9-1.45,0-2.71,0-2.71"/>
    <path d="M5.63,8.96c.91-1.44.03-2.71.03-2.71"/>
    <path d="M5.8,6.01c.82-1.5,2.36-1.34,2.36-1.34"/>
    <path d="M8.15,7.51c-.79-1.51-2.34-1.36-2.34-1.36"/>
    <path d="M5.52,6.17c-.82,1.5-2.36,1.34-2.36,1.34"/>
    <path d="M3.19,4.65c.79,1.51,2.35,1.35,2.35,1.35"/>
  </g>
</svg>