<?xml version="1.0" encoding="UTF-8"?>
<svg id="Layer_2" data-name="Layer 2" xmlns="http://www.w3.org/2000/svg" viewBox="0 0 45.7 6.88">
  <defs>
    <style>
      .cls-1 {
        fill: #fff;
      }

      .cls-2 {
        fill: #d99937;
      }
    </style>
  </defs>
  <g id="Layer_1-2" data-name="Layer 1">
    <g>
      <path class="cls-2" d="M30,1.76l1.02,2.76c.04.09.1.14.19.14.1,0,.18-.08.18-.19v-2.02c0-.45.25-.75.76-.75.46,0,.68.24.81.63l.83,2.19c.03.09.1.14.19.14.1,0,.17-.08.17-.19V1.76h.6v2.73c0,.45-.25.75-.76.75-.46,0-.67-.24-.81-.63l-.83-2.19c-.03-.09-.1-.15-.19-.15-.1,0-.17.08-.17.2v2.02c0,.45-.25.75-.76.75-.46,0-.67-.24-.81-.63l-1.06-2.85h.64Z"/>
      <path class="cls-2" d="M35.7,5.18h-.66l1.2-3.04c.13-.32.36-.44.72-.44s.59.12.71.44l1.16,3.04h-.66l-1.04-2.75c-.03-.08-.09-.12-.17-.12s-.14.03-.17.12l-1.09,2.75Z"/>
      <path class="cls-2" d="M41.19,1.76c.77,0,1.1.48,1.1,1.03,0,.43-.2.88-.73,1.03l.8,1.37h-.67l-.78-1.32h-.89c-.06,0-.09.02-.09.09v1.24h-.6v-1.35c0-.39.16-.54.54-.54h1.33c.34,0,.48-.23.48-.48s-.15-.45-.48-.45h-1.88v-.6h1.86Z"/>
      <path class="cls-2" d="M45.7,1.76v.6h-1.71c-.36,0-.52.17-.52.43,0,.28.18.41.52.41h1.68v.54h-1.7c-.34,0-.52.14-.52.42s.17.43.52.43h1.73v.6h-1.73c-.81,0-1.14-.4-1.14-.93,0-.39.18-.65.49-.79-.32-.13-.48-.39-.48-.77,0-.55.34-.93,1.15-.93h1.71Z"/>
      <path class="cls-1" d="M11.07,1.76c.81,0,1.15.38,1.15.94,0,.4-.17.63-.49.76.32.13.51.39.51.78,0,.55-.34.94-1.15.94h-1.52c-.19,0-.28-.09-.28-.28v-2.87c0-.19.09-.28.28-.28h1.51ZM9.87,3.2h1.22c.36,0,.53-.13.53-.41s-.16-.45-.52-.45h-1.16s-.07.02-.07.06v.8ZM9.87,4.53s.02.06.07.06h1.17c.36,0,.53-.17.53-.45s-.18-.44-.53-.44h-1.23v.83Z"/>
      <path class="cls-1" d="M14.77,1.76c.77,0,1.1.48,1.1,1.03,0,.43-.2.88-.73,1.03l.8,1.37h-.67l-.78-1.32h-.89c-.05,0-.09.02-.09.09v1.24h-.6v-1.35c0-.39.16-.54.54-.54h1.33c.34,0,.48-.23.48-.48s-.15-.45-.48-.45h-1.88v-.6h1.86Z"/>
      <path class="cls-1" d="M16.89,5.18h-.66l1.2-3.04c.13-.32.36-.44.72-.44s.59.12.71.44l1.16,3.04h-.66l-1.04-2.75c-.03-.08-.09-.12-.17-.12s-.14.03-.17.12l-1.09,2.75Z"/>
      <polygon class="cls-1" points="21.12 1.76 21.12 3.15 22.87 3.15 22.87 1.76 23.48 1.76 23.48 5.18 22.87 5.18 22.87 3.75 21.12 3.75 21.12 5.18 20.52 5.18 20.52 1.76 21.12 1.76"/>
      <path class="cls-1" d="M24.9,5.18h-.6v-2.74c0-.45.25-.75.76-.75.46,0,.67.24.8.63l.83,2.19c.04.09.1.14.19.14.1,0,.18-.08.18-.19v-2.02c0-.45.25-.75.76-.75.46,0,.67.24.81.63l1.06,2.85h-.64l-1.02-2.76c-.04-.09-.1-.15-.19-.15-.1,0-.17.08-.17.2v2.02c0,.45-.26.75-.76.75-.45,0-.67-.24-.81-.63l-.83-2.19c-.04-.09-.1-.15-.19-.15-.11,0-.18.08-.18.2v2.71Z"/>
      <path class="cls-1" d="M3.22,6.88c-.96,0-1.75-.78-1.75-1.75s.78-1.75,1.75-1.75,1.75.78,1.75,1.75-.78,1.75-1.75,1.75M3.22,3.49c-.9,0-1.64.74-1.64,1.64s.73,1.64,1.64,1.64,1.64-.73,1.64-1.64-.73-1.64-1.64-1.64"/>
      <path class="cls-1" d="M3.22,5.21c-.96,0-1.75-.78-1.75-1.75s.78-1.75,1.75-1.75,1.75.78,1.75,1.75-.78,1.75-1.75,1.75M3.22,1.82c-.9,0-1.64.74-1.64,1.64s.73,1.64,1.64,1.64,1.64-.73,1.64-1.64-.73-1.64-1.64-1.64"/>
      <path class="cls-1" d="M3.22,3.5c-.96,0-1.75-.78-1.75-1.75s.78-1.75,1.75-1.75,1.75.78,1.75,1.75-.78,1.75-1.75,1.75M3.22.11C2.31.11,1.58.85,1.58,1.75s.73,1.64,1.64,1.64,1.64-.73,1.64-1.64S4.12.11,3.22.11"/>
      <path class="cls-1" d="M4.68,4.35c-.96,0-1.75-.78-1.75-1.75s.78-1.75,1.75-1.75,1.75.78,1.75,1.75-.78,1.75-1.75,1.75M4.68.96c-.9,0-1.64.74-1.64,1.64s.73,1.64,1.64,1.64,1.64-.73,1.64-1.64-.73-1.64-1.64-1.64"/>
      <path class="cls-1" d="M4.67,6.06c-.96,0-1.75-.78-1.75-1.75s.78-1.75,1.75-1.75,1.75.78,1.75,1.75-.78,1.75-1.75,1.75M4.67,2.67c-.9,0-1.64.74-1.64,1.64s.73,1.64,1.64,1.64,1.64-.73,1.64-1.64-.73-1.64-1.64-1.64"/>
      <path class="cls-1" d="M1.76,4.33C.8,4.33.01,3.55.01,2.58S.8.84,1.76.84s1.75.78,1.75,1.75-.78,1.75-1.75,1.75M1.76.95C.86.95.12,1.68.12,2.58s.73,1.64,1.64,1.64,1.64-.73,1.64-1.64-.73-1.64-1.64-1.64"/>
      <path class="cls-1" d="M1.75,6.05c-.96,0-1.75-.78-1.75-1.75s.78-1.75,1.75-1.75,1.75.78,1.75,1.75-.78,1.75-1.75,1.75M1.75,2.66C.85,2.66.11,3.4.11,4.3s.73,1.64,1.64,1.64,1.64-.73,1.64-1.64-.73-1.64-1.64-1.64"/>
      <path class="cls-1" d="M3.23,3.38c-.51-.82,0-1.54,0-1.54"/>
      <path class="cls-1" d="M3.19,5.08c.52-.82.02-1.53.02-1.53"/>
      <path class="cls-1" d="M3.29,3.4c.46-.85,1.33-.76,1.33-.76"/>
      <path class="cls-1" d="M4.61,4.26c-.45-.86-1.33-.77-1.33-.77"/>
      <path class="cls-1" d="M3.13,3.5c-.47.85-1.34.76-1.34.76"/>
      <path class="cls-1" d="M1.81,2.63c.45.86,1.33.77,1.33.77"/>
    </g>
  </g>
</svg>